# 3ds Max Wavefront OBJ Exporter v0.97b - (c)2007 guruware
# File Created: 27.11.2017 19:10:31

#
# object Sphere001
#

v  0.0000 31.8697 -0.0000
v  -4.9840 29.2791 -12.0326
v  -0.0000 29.2791 -13.0239
v  -9.2093 29.2791 -9.2093
v  -12.0326 29.2791 -4.9841
v  -13.0239 29.2791 -0.0000
v  -12.0326 29.2791 4.9840
v  -9.2093 29.2791 9.2093
v  -4.9840 29.2791 12.0326
v  0.0000 29.2791 13.0239
v  4.9841 29.2791 12.0326
v  9.2093 29.2791 9.2093
v  12.0326 29.2791 4.9840
v  13.0239 29.2791 -0.0000
v  12.0326 29.2791 -4.9841
v  9.2093 29.2791 -9.2093
v  4.9840 29.2791 -12.0326
v  -9.2093 21.9016 -22.2333
v  -0.0000 21.9016 -24.0651
v  -17.0166 21.9016 -17.0166
v  -22.2333 21.9016 -9.2093
v  -24.0651 21.9016 -0.0000
v  -22.2333 21.9016 9.2093
v  -17.0166 21.9016 17.0166
v  -9.2093 21.9016 22.2333
v  0.0000 21.9016 24.0651
v  9.2093 21.9016 22.2333
v  17.0166 21.9016 17.0166
v  22.2333 21.9016 9.2093
v  24.0651 21.9016 -0.0000
v  22.2333 21.9016 -9.2093
v  17.0166 21.9016 -17.0166
v  9.2093 21.9016 -22.2333
v  -12.0326 10.8604 -29.0492
v  -0.0000 10.8604 -31.4426
v  -22.2333 10.8604 -22.2333
v  -29.0492 10.8604 -12.0326
v  -31.4426 10.8604 -0.0000
v  -29.0492 10.8604 12.0325
v  -22.2333 10.8604 22.2333
v  -12.0326 10.8604 29.0492
v  0.0000 10.8604 31.4426
v  12.0326 10.8604 29.0492
v  22.2333 10.8604 22.2333
v  29.0492 10.8604 12.0325
v  31.4426 10.8604 -0.0000
v  29.0491 10.8604 -12.0326
v  22.2332 10.8604 -22.2333
v  12.0325 10.8604 -29.0492
v  -13.0239 -2.1635 -31.4426
v  -0.0000 -2.1635 -34.0332
v  -24.0651 -2.1635 -24.0651
v  -31.4426 -2.1635 -13.0239
v  -34.0332 -2.1635 -0.0000
v  -31.4426 -2.1635 13.0239
v  -24.0651 -2.1635 24.0651
v  -13.0239 -2.1635 31.4426
v  0.0000 -2.1635 34.0332
v  13.0240 -2.1635 31.4426
v  24.0651 -2.1635 24.0651
v  31.4426 -2.1635 13.0239
v  34.0332 -2.1635 -0.0000
v  31.4426 -2.1635 -13.0240
v  24.0651 -2.1635 -24.0651
v  13.0239 -2.1635 -31.4426
# 65 vertices

vn -0.0000 -1.0000 0.0000
vn 0.1543 -0.9152 0.3724
vn 0.0000 -0.9152 0.4031
vn 0.2850 -0.9152 0.2850
vn 0.3724 -0.9152 0.1543
vn 0.4031 -0.9152 0.0000
vn 0.3724 -0.9152 -0.1543
vn 0.2850 -0.9152 -0.2850
vn 0.1543 -0.9152 -0.3724
vn -0.0000 -0.9152 -0.4031
vn -0.1543 -0.9152 -0.3724
vn -0.2850 -0.9152 -0.2850
vn -0.3724 -0.9152 -0.1543
vn -0.4031 -0.9152 0.0000
vn -0.3724 -0.9152 0.1543
vn -0.2850 -0.9152 0.2850
vn -0.1543 -0.9152 0.3724
vn 0.2751 -0.6952 0.6641
vn 0.0000 -0.6952 0.7189
vn 0.5083 -0.6952 0.5083
vn 0.6641 -0.6952 0.2751
vn 0.7189 -0.6952 0.0000
vn 0.6641 -0.6952 -0.2751
vn 0.5083 -0.6952 -0.5083
vn 0.2751 -0.6952 -0.6641
vn -0.0000 -0.6952 -0.7189
vn -0.2751 -0.6952 -0.6641
vn -0.5083 -0.6952 -0.5083
vn -0.6641 -0.6952 -0.2751
vn -0.7189 -0.6952 0.0000
vn -0.6641 -0.6952 0.2751
vn -0.5083 -0.6952 0.5083
vn -0.2751 -0.6952 0.6641
vn 0.3549 -0.3744 0.8567
vn 0.0000 -0.3744 0.9273
vn 0.6557 -0.3744 0.6557
vn 0.8567 -0.3744 0.3549
vn 0.9273 -0.3744 0.0000
vn 0.8567 -0.3744 -0.3549
vn 0.6557 -0.3744 -0.6557
vn 0.3549 -0.3744 -0.8567
vn -0.0000 -0.3744 -0.9273
vn -0.3549 -0.3744 -0.8567
vn -0.6557 -0.3744 -0.6557
vn -0.8567 -0.3744 -0.3549
vn -0.9273 -0.3744 0.0000
vn -0.8567 -0.3744 0.3549
vn -0.6557 -0.3744 0.6557
vn -0.3549 -0.3744 0.8567
vn 0.3753 -0.1951 0.9061
vn 0.0000 -0.1951 0.9808
vn 0.6935 -0.1951 0.6935
vn 0.9061 -0.1951 0.3753
vn 0.9808 -0.1951 0.0000
vn 0.9061 -0.1951 -0.3753
vn 0.6935 -0.1951 -0.6935
vn 0.3753 -0.1951 -0.9061
vn -0.0000 -0.1951 -0.9808
vn -0.3753 -0.1951 -0.9061
vn -0.6935 -0.1951 -0.6935
vn -0.9061 -0.1951 -0.3753
vn -0.9808 -0.1951 0.0000
vn -0.9061 -0.1951 0.3753
vn -0.6935 -0.1951 0.6935
vn -0.3753 -0.1951 0.9061
# 65 vertex normals

vt 0.5000 0.5000 0.0000
vt 0.4271 0.6761 0.0000
vt 0.5000 0.6906 0.0000
vt 0.3652 0.6348 0.0000
vt 0.3239 0.5729 0.0000
vt 0.3094 0.5000 0.0000
vt 0.3239 0.4271 0.0000
vt 0.3652 0.3652 0.0000
vt 0.4271 0.3239 0.0000
vt 0.5000 0.3094 0.0000
vt 0.5729 0.3239 0.0000
vt 0.6348 0.3652 0.0000
vt 0.6761 0.4271 0.0000
vt 0.6906 0.5000 0.0000
vt 0.6761 0.5729 0.0000
vt 0.6348 0.6348 0.0000
vt 0.5729 0.6761 0.0000
vt 0.3652 0.8253 0.0000
vt 0.5000 0.8521 0.0000
vt 0.2510 0.7490 0.0000
vt 0.1747 0.6348 0.0000
vt 0.1479 0.5000 0.0000
vt 0.1747 0.3652 0.0000
vt 0.2510 0.2510 0.0000
vt 0.3652 0.1747 0.0000
vt 0.5000 0.1479 0.0000
vt 0.6348 0.1747 0.0000
vt 0.7490 0.2510 0.0000
vt 0.8253 0.3652 0.0000
vt 0.8521 0.5000 0.0000
vt 0.8253 0.6348 0.0000
vt 0.7490 0.7490 0.0000
vt 0.6348 0.8253 0.0000
vt 0.3239 0.9251 0.0000
vt 0.5000 0.9601 0.0000
vt 0.1747 0.8253 0.0000
vt 0.0749 0.6761 0.0000
vt 0.0399 0.5000 0.0000
vt 0.0749 0.3239 0.0000
vt 0.1747 0.1747 0.0000
vt 0.3239 0.0749 0.0000
vt 0.5000 0.0399 0.0000
vt 0.6761 0.0749 0.0000
vt 0.8253 0.1747 0.0000
vt 0.9251 0.3239 0.0000
vt 0.9601 0.5000 0.0000
vt 0.9251 0.6761 0.0000
vt 0.8253 0.8253 0.0000
vt 0.6761 0.9251 0.0000
vt 0.3094 0.9601 0.0000
vt 0.5000 0.9980 0.0000
vt 0.1479 0.8521 0.0000
vt 0.0399 0.6906 0.0000
vt 0.0020 0.5000 0.0000
vt 0.0399 0.3094 0.0000
vt 0.1479 0.1479 0.0000
vt 0.3094 0.0399 0.0000
vt 0.5000 0.0020 0.0000
vt 0.6906 0.0399 0.0000
vt 0.8521 0.1479 0.0000
vt 0.9601 0.3094 0.0000
vt 0.9980 0.5000 0.0000
vt 0.9601 0.6906 0.0000
vt 0.8521 0.8521 0.0000
vt 0.6906 0.9601 0.0000
# 65 texture coords

g Sphere001
f 1/1/1 2/2/2 3/3/3 
f 1/1/1 4/4/4 2/2/2 
f 1/1/1 5/5/5 4/4/4 
f 1/1/1 6/6/6 5/5/5 
f 1/1/1 7/7/7 6/6/6 
f 1/1/1 8/8/8 7/7/7 
f 1/1/1 9/9/9 8/8/8 
f 1/1/1 10/10/10 9/9/9 
f 1/1/1 11/11/11 10/10/10 
f 1/1/1 12/12/12 11/11/11 
f 1/1/1 13/13/13 12/12/12 
f 1/1/1 14/14/14 13/13/13 
f 1/1/1 15/15/15 14/14/14 
f 1/1/1 16/16/16 15/15/15 
f 1/1/1 17/17/17 16/16/16 
f 1/1/1 3/3/3 17/17/17 
f 18/18/18 19/19/19 3/3/3 
f 3/3/3 2/2/2 18/18/18 
f 20/20/20 18/18/18 2/2/2 
f 2/2/2 4/4/4 20/20/20 
f 21/21/21 20/20/20 4/4/4 
f 4/4/4 5/5/5 21/21/21 
f 22/22/22 21/21/21 5/5/5 
f 5/5/5 6/6/6 22/22/22 
f 23/23/23 22/22/22 6/6/6 
f 6/6/6 7/7/7 23/23/23 
f 24/24/24 23/23/23 7/7/7 
f 7/7/7 8/8/8 24/24/24 
f 25/25/25 24/24/24 8/8/8 
f 8/8/8 9/9/9 25/25/25 
f 26/26/26 25/25/25 9/9/9 
f 9/9/9 10/10/10 26/26/26 
f 27/27/27 26/26/26 10/10/10 
f 10/10/10 11/11/11 27/27/27 
f 28/28/28 27/27/27 11/11/11 
f 11/11/11 12/12/12 28/28/28 
f 29/29/29 28/28/28 12/12/12 
f 12/12/12 13/13/13 29/29/29 
f 30/30/30 29/29/29 13/13/13 
f 13/13/13 14/14/14 30/30/30 
f 31/31/31 30/30/30 14/14/14 
f 14/14/14 15/15/15 31/31/31 
f 32/32/32 31/31/31 15/15/15 
f 15/15/15 16/16/16 32/32/32 
f 33/33/33 32/32/32 16/16/16 
f 16/16/16 17/17/17 33/33/33 
f 19/19/19 33/33/33 17/17/17 
f 17/17/17 3/3/3 19/19/19 
f 34/34/34 35/35/35 19/19/19 
f 19/19/19 18/18/18 34/34/34 
f 36/36/36 34/34/34 18/18/18 
f 18/18/18 20/20/20 36/36/36 
f 37/37/37 36/36/36 20/20/20 
f 20/20/20 21/21/21 37/37/37 
f 38/38/38 37/37/37 21/21/21 
f 21/21/21 22/22/22 38/38/38 
f 39/39/39 38/38/38 22/22/22 
f 22/22/22 23/23/23 39/39/39 
f 40/40/40 39/39/39 23/23/23 
f 23/23/23 24/24/24 40/40/40 
f 41/41/41 40/40/40 24/24/24 
f 24/24/24 25/25/25 41/41/41 
f 42/42/42 41/41/41 25/25/25 
f 25/25/25 26/26/26 42/42/42 
f 43/43/43 42/42/42 26/26/26 
f 26/26/26 27/27/27 43/43/43 
f 44/44/44 43/43/43 27/27/27 
f 27/27/27 28/28/28 44/44/44 
f 45/45/45 44/44/44 28/28/28 
f 28/28/28 29/29/29 45/45/45 
f 46/46/46 45/45/45 29/29/29 
f 29/29/29 30/30/30 46/46/46 
f 47/47/47 46/46/46 30/30/30 
f 30/30/30 31/31/31 47/47/47 
f 48/48/48 47/47/47 31/31/31 
f 31/31/31 32/32/32 48/48/48 
f 49/49/49 48/48/48 32/32/32 
f 32/32/32 33/33/33 49/49/49 
f 35/35/35 49/49/49 33/33/33 
f 33/33/33 19/19/19 35/35/35 
f 50/50/50 51/51/51 35/35/35 
f 35/35/35 34/34/34 50/50/50 
f 52/52/52 50/50/50 34/34/34 
f 34/34/34 36/36/36 52/52/52 
f 53/53/53 52/52/52 36/36/36 
f 36/36/36 37/37/37 53/53/53 
f 54/54/54 53/53/53 37/37/37 
f 37/37/37 38/38/38 54/54/54 
f 55/55/55 54/54/54 38/38/38 
f 38/38/38 39/39/39 55/55/55 
f 56/56/56 55/55/55 39/39/39 
f 39/39/39 40/40/40 56/56/56 
f 57/57/57 56/56/56 40/40/40 
f 40/40/40 41/41/41 57/57/57 
f 58/58/58 57/57/57 41/41/41 
f 41/41/41 42/42/42 58/58/58 
f 59/59/59 58/58/58 42/42/42 
f 42/42/42 43/43/43 59/59/59 
f 60/60/60 59/59/59 43/43/43 
f 43/43/43 44/44/44 60/60/60 
f 61/61/61 60/60/60 44/44/44 
f 44/44/44 45/45/45 61/61/61 
f 62/62/62 61/61/61 45/45/45 
f 45/45/45 46/46/46 62/62/62 
f 63/63/63 62/62/62 46/46/46 
f 46/46/46 47/47/47 63/63/63 
f 64/64/64 63/63/63 47/47/47 
f 47/47/47 48/48/48 64/64/64 
f 65/65/65 64/64/64 48/48/48 
f 48/48/48 49/49/49 65/65/65 
f 51/51/51 65/65/65 49/49/49 
f 49/49/49 35/35/35 51/51/51 
# 112 faces

